<svg width="24" height="24" viewBox="0 0 24 24" fill="none" xmlns="http://www.w3.org/2000/svg">
<circle cx="12" cy="12" r="12" fill="#F5F5F5"/>
<path d="M6.09584 15.9972C5.52972 15.9739 5.06655 15.8138 4.70439 15.5163C4.63527 15.4595 4.47057 15.2892 4.41531 15.2173C4.26845 15.0264 4.16861 14.8406 4.10201 14.6345C3.89708 14 4.00255 13.1673 4.40368 12.2535C4.74714 11.4712 5.2771 10.6953 6.2017 9.6206C6.3379 9.46247 6.74349 9 6.74611 9C6.74708 9 6.72497 9.03958 6.69715 9.08778C6.45674 9.50406 6.25104 9.99438 6.13898 10.4189C5.95896 11.1 5.98068 11.6845 6.20257 12.1378C6.35564 12.45 6.61805 12.7205 6.91313 12.87C7.42972 13.1317 8.18603 13.1533 9.10966 12.9333C9.17326 12.9181 12.3243 12.0534 16.1121 11.0117C19.8999 9.96993 22.9995 9.11825 23 9.11895C23.0011 9.11985 14.1999 13.013 9.6311 15.0327C8.90755 15.3525 8.71406 15.4333 8.3739 15.5567C7.50436 15.8724 6.72546 16.023 6.09584 15.9972Z" fill="#111111"/>
</svg>
